<svg xmlns="http://www.w3.org/2000/svg" viewBox="0 0 200 200"><defs><linearGradient id="bg1c" x1="0" y1="0" x2="0" y2="1"><stop offset="0%" stop-color="#0e2942"/><stop offset="100%" stop-color="#071828"/></linearGradient></defs><rect width="200" height="200" rx="32" fill="url(#bg1c)"/><rect x="44" y="22" width="112" height="156" rx="10" fill="#f4e8c8" stroke="#8b6b2e" stroke-width="2"/><rect x="50" y="28" width="100" height="144" rx="6" fill="none" stroke="#8b6b2e" stroke-width="0.7" opacity="0.5"/><text x="54" y="42" font-family="Georgia,serif" font-size="14" font-weight="700" fill="#071828">A</text><text x="146" y="170" text-anchor="end" font-family="Georgia,serif" font-size="14" font-weight="700" fill="#071828">A</text><g transform="translate(78 72) scale(0.78)"><g><polygon points="0,-24 4,-2 -4,-2" fill="#4f96cc"/><polygon points="0,-24 0,-2 -4,-2" fill="#7dbbe6" opacity="0.55"/><rect x="-12" y="-2" width="24" height="4.5" rx="2" fill="#1f4f7b"/><rect x="-2.5" y="2.5" width="5" height="11" rx="1" fill="#4f96cc"/><ellipse cx="0" cy="16" rx="6" ry="4.5" fill="#4f96cc"/><circle cx="0" cy="16" r="2" fill="#7dbbe6"/></g></g><g transform="translate(122 70) scale(0.85)"><g><path d="M -11 -16 Q -11 -2 0 -2 Q 11 -2 11 -16 Z" fill="#7a1f18"/><ellipse cx="0" cy="-15.5" rx="11" ry="2.2" fill="#8b6b2e"/><rect x="-1.6" y="-2" width="3.2" height="11" fill="#8b6b2e"/><ellipse cx="0" cy="11.5" rx="9.5" ry="2.6" fill="#8b6b2e"/><path d="M -7 -13 Q 0 -7 7 -13" stroke="#8b6b2e" stroke-width="0.8" fill="none" opacity="0.6"/></g></g><g transform="translate(78 130) scale(0.85)"><g><circle cx="0" cy="0" r="14" fill="#8b6b2e"/><circle cx="-3" cy="-3" r="6" fill="#e2b044" opacity="0.5"/><circle cx="0" cy="0" r="11" fill="none" stroke="#f4e8c8" stroke-width="0.8" opacity="0.6"/><circle cx="0" cy="0" r="8" fill="none" stroke="#f4e8c8" stroke-width="0.6" opacity="0.4"/><text x="0" y="3.5" text-anchor="middle" font-family="Georgia,serif" font-size="10" font-weight="700" fill="#f4e8c8">A</text></g></g><g transform="translate(122 130) scale(0.85)"><g><path d="M -7 -18 Q -8 -22 0 -24 Q 8 -22 7 -18 Q 6 -8 2 4 Q 1 10 0 16 Q -1 10 -2 4 Q -6 -8 -7 -18 Z" fill="#4ea80f" stroke="#2b7a1f" stroke-width="0.8" stroke-linejoin="round"/></g></g><line x1="100" y1="55" x2="100" y2="145" stroke="#8b6b2e" stroke-width="0.4" opacity="0.4"/><line x1="60" y1="100" x2="140" y2="100" stroke="#8b6b2e" stroke-width="0.4" opacity="0.4"/></svg>